<?xml version="1.0" encoding="UTF-8" standalone="no"?>
<!-- Created with Inkscape (http://www.inkscape.org/) -->

<svg
   xmlns:dc="http://purl.org/dc/elements/1.1/"
   xmlns:cc="http://creativecommons.org/ns#"
   xmlns:rdf="http://www.w3.org/1999/02/22-rdf-syntax-ns#"
   xmlns:svg="http://www.w3.org/2000/svg"
   xmlns="http://www.w3.org/2000/svg"
   xmlns:sodipodi="http://sodipodi.sourceforge.net/DTD/sodipodi-0.dtd"
   xmlns:inkscape="http://www.inkscape.org/namespaces/inkscape"
   width="744.09448819"
   height="1052.3622047"
   id="svg2"
   version="1.1"
   inkscape:version="0.48.2 r9819"
   sodipodi:docname="bottle_longneck.svg">
  <defs
     id="defs4" />
  <sodipodi:namedview
     id="base"
     pagecolor="#ffffff"
     bordercolor="#666666"
     borderopacity="1.0"
     inkscape:pageopacity="0.0"
     inkscape:pageshadow="2"
     inkscape:zoom="0.49497475"
     inkscape:cx="146.01323"
     inkscape:cy="554.75688"
     inkscape:document-units="px"
     inkscape:current-layer="layer1"
     showgrid="false"
     inkscape:window-width="1680"
     inkscape:window-height="1026"
     inkscape:window-x="0"
     inkscape:window-y="24"
     inkscape:window-maximized="1" />
  <metadata
     id="metadata7">
    <rdf:RDF>
      <cc:Work
         rdf:about="">
        <dc:format>image/svg+xml</dc:format>
        <dc:type
           rdf:resource="http://purl.org/dc/dcmitype/StillImage" />
        <dc:title></dc:title>
      </cc:Work>
    </rdf:RDF>
  </metadata>
  <g
     inkscape:label="Layer 1"
     inkscape:groupmode="layer"
     id="layer1">
    <path
       style="fill:#000000;stroke:none;stroke-width:3;stroke-linecap:butt;stroke-linejoin:miter;stroke-opacity:1"
       d="m 258.83061,930.96599 c 23.45136,24.69226 182.24087,21.07832 191.62142,1.42531 11.46511,-9.07063 8.84406,-39.90874 8.84406,-39.90874 l 2.94804,-399.08731 C 460.68069,443.00287 415.77574,413.96813 414.21232,382.22093 L 398.86164,172.70008 c 18.23996,-8.06277 4.25855,-35.44505 1.1317,-44.51566 10.94398,-16.12557 -0.96821,-17.60766 -3.57391,-20.12729 -32.83192,-3.02354 -48.19717,-2.51962 -84.15593,0.50393 0,0 -13.70231,11.17893 -0.15264,19.2417 3.12686,5.54317 -23.45136,35.17517 0.52115,45.25366 l -16.24031,211.5112 c -4.69028,35.7786 -42.08339,55.19249 -45.73138,101.55347 l 3.01125,419.18929 c 0,0 -0.0524,19.60851 5.15904,25.65561 z"
       id="path3009"
       inkscape:connector-curvature="0"
       sodipodi:nodetypes="ccccccccccccccc" />
  </g>
</svg>
